<svg aria-hidden="true" style="position:absolute;width:0;height:0;overflow:hidden" xmlns="http://www.w3.org/2000/svg">
  <defs>
    <symbol id="icon_logo">
      <path fill="#F59E0B" d="M0 4a4 4 0 0 1 4-4h24a4 4 0 0 1 4 4v4c0 13.255-10.745 24-24 24H4a4 4 0 0 1-4-4V4Z"/>
      <path fill="#4BE4C9" d="M4 8a4 4 0 0 1 4-4h24a4 4 0 0 1 4 4v4c0 13.255-10.745 24-24 24H8a4 4 0 0 1-4-4V8Z"/>
    </symbol>
    <symbol id="icon_location">
      <path fill="#F59E0B" d="M12 1c2.387 0 4.676.993 6.364 2.762C20.052 5.53 21 7.928 21 10.429c0 4.505-2.902 8.652-8.598 12.449a.726.726 0 0 1-.804 0C5.902 19.08 3 14.934 3 10.428c0-2.5.948-4.898 2.636-6.666C7.324 1.993 9.613 1 12 1Zm0 6.286c-.796 0-1.559.33-2.121.92A3.22 3.22 0 0 0 9 10.43c0 .833.316 1.633.879 2.222.562.59 1.325.92 2.121.92s1.559-.33 2.121-.92A3.22 3.22 0 0 0 15 10.429a3.22 3.22 0 0 0-.879-2.223A2.933 2.933 0 0 0 12 7.286Z"/>
    </symbol>
    <symbol id="icon_arrow-right">
      <path d="M9.993 5.002a.988.988 0 0 0-.879.532 1.002 1.002 0 0 0 .116 1.104l4.442 5.348-4.284 5.358a1 1 0 0 0 .15 1.407.99.99 0 0 0 1.142.12.993.993 0 0 0 .305-.27l4.79-5.986a1.001 1.001 0 0 0 0-1.267L10.815 5.36a.993.993 0 0 0-.823-.36Z"/>
    </symbol>
    <symbol id="icon_arrow-left">
      <path d="M17.508 22.165a1.153 1.153 0 0 0 1.025-.621 1.17 1.17 0 0 0-.135-1.288l-5.182-6.24 4.997-6.251a1.166 1.166 0 0 0-.173-1.641 1.155 1.155 0 0 0-1.334-.14 1.16 1.16 0 0 0-.355.314l-5.588 6.985a1.168 1.168 0 0 0 0 1.478l5.784 6.985a1.157 1.157 0 0 0 .96.419Z"/>
    </symbol>
    <symbol id="icon_house">
      <path d="M21 10.832V19.5a1.508 1.508 0 0 1-.792 1.326c-.216.117-.46.177-.706.174h-4.505a.75.75 0 0 1-.75-.75v-4.5a.75.75 0 0 0-.75-.75h-3a.75.75 0 0 0-.75.75v4.5a.75.75 0 0 1-.75.75H4.5a1.49 1.49 0 0 1-1.124-.507A1.544 1.544 0 0 1 3 19.466v-8.634a1.503 1.503 0 0 1 .491-1.11l7.5-6.819a1.494 1.494 0 0 1 2.018 0l7.5 6.819a1.504 1.504 0 0 1 .491 1.11Z"/>
    </symbol>
    <symbol id="icon_villa">
      <path d="M7 21H4c-.55 0-1-.45-1-1V8.69c0-.42.25-.79.64-.94l11-4.23a1 1 0 0 1 1.36.94V10H8c-.55 0-1 .45-1 1v10Zm10-9h-7c-.55 0-1 .45-1 1v7c0 .55.45 1 1 1h4v-4c0-.55.45-1 1-1s1 .45 1 1v4h4c.55 0 1-.45 1-1v-8c0-1.1-.9-2-2-2s-2 .9-2 2Z"/>
    </symbol>
    <symbol id="icon_apartment">
      <path d="M17 11V5c0-1.1-.9-2-2-2H9c-1.1 0-2 .9-2 2v2H5c-1.1 0-2 .9-2 2v10c0 1.1.9 2 2 2h6v-4h2v4h6c1.1 0 2-.9 2-2v-6c0-1.1-.9-2-2-2h-2ZM7 19H5v-2h2v2Zm0-4H5v-2h2v2Zm0-4H5V9h2v2Zm4 4H9v-2h2v2Zm0-4H9V9h2v2Zm0-4H9V5h2v2Zm4 8h-2v-2h2v2Zm0-4h-2V9h2v2Zm0-4h-2V5h2v2Zm4 12h-2v-2h2v2Zm0-4h-2v-2h2v2Z"/>
    </symbol>
    <symbol id="icon_fire">
      <path fill="#EF4444" d="M13.033 7.331a5.43 5.43 0 0 0-1.295-1.8l-.455-.417a.126.126 0 0 0-.203.052l-.203.582c-.127.366-.36.74-.69 1.107a.098.098 0 0 1-.064.03.086.086 0 0 1-.067-.023.092.092 0 0 1-.031-.075c.058-.94-.223-2.001-.84-3.156-.508-.96-1.216-1.708-2.1-2.23l-.646-.38a.125.125 0 0 0-.187.115l.034.75c.023.512-.036.966-.177 1.342-.171.461-.418.89-.734 1.274a4.62 4.62 0 0 1-.742.72A5.51 5.51 0 0 0 3.066 7.12a5.434 5.434 0 0 0-.133 4.536 5.489 5.489 0 0 0 2.928 2.9A5.498 5.498 0 0 0 8 14.984c.742 0 1.46-.143 2.14-.426a5.447 5.447 0 0 0 1.747-1.167A5.409 5.409 0 0 0 13.5 9.533c0-.763-.156-1.503-.467-2.202Z"/>
    </symbol>
    <symbol id="icon_wallet">
      <path fill="#047857" d="M11.8 3.8h-10v-.4l8.8-.704V3.4h1.2V2.2c0-.88-.713-1.498-1.583-1.374L2.184 1.974C1.313 2.098.6 2.92.6 3.8v8a1.6 1.6 0 0 0 1.6 1.6h9.6a1.6 1.6 0 0 0 1.6-1.6V5.4a1.6 1.6 0 0 0-1.6-1.6Zm-1.2 5.605a1.2 1.2 0 1 1 0-2.4 1.2 1.2 0 0 1 0 2.4Z"/>
    </symbol>
    <symbol id="icon_bedroom">
      <path fill="#888B97" d="M23.8 14.77c2.271 0 4.2 1.892 4.2 4.307v3.692h-1.8V24H25v-1.23H7V24H5.8v-1.23H4v-3.693c0-2.33 1.863-4.308 4.2-4.308h15.6ZM22.6 8c1.613 0 3 1.33 3 3.077v2.94a3.654 3.654 0 0 0-1.8-.478l-1.2-.001c0-1.054-.841-1.846-1.8-1.846h-3.6c-.461 0-.881.178-1.2.47a1.769 1.769 0 0 0-1.2-.47h-3.6c-.994 0-1.8.826-1.8 1.846H8.2c-.644 0-1.254.172-1.8.479v-2.94C6.4 9.422 7.694 8 9.4 8h13.2Zm-7.8 4.923c.326 0 .6.307.6.616l-4.8-.001c0-.377.292-.615.6-.615h3.6Zm6 .004c.34-.004.6.296.6.61h-4.8c0-.381.292-.614.6-.614l3.6.004Z"/>
    </symbol>
    <symbol id="icon_carport">
      <path fill="#888B97" d="m27.384 10.629-10.027-6.25a2.581 2.581 0 0 0-2.712.011L4.608 10.634c-.623.391-.795 1.191-.385 1.786.41.594 1.248.76 1.872.367l9.916-6.169 9.903 6.174c.228.14.482.207.733.207.444 0 .877-.207 1.136-.588.406-.598.226-1.395-.4-1.782Z"/>
      <path fill="#888B97" d="M24.21 18.753a.928.928 0 0 0-.902-.783h-.512l-.194-2.074C22.394 13.678 20.599 12 18.425 12h-4.849c-2.174 0-3.97 1.679-4.177 3.896l-.194 2.074h-.512a.93.93 0 0 0-.904.783l-.761 4.424a1.92 1.92 0 0 0 .406 1.538c.335.41.83.654 1.348.673v.734c0 1.04.813 1.878 1.828 1.878h.577c1.015 0 1.84-.838 1.84-1.878V25.4h5.952v.721c0 1.04.819 1.88 1.833 1.88h.578c1.014 0 1.834-.84 1.834-1.88v-.732a1.823 1.823 0 0 0 1.344-.67 1.92 1.92 0 0 0 .405-1.538l-.762-4.427Zm-13.82 4.94c-.855 0-1.55-.71-1.55-1.59 0-.878.695-1.59 1.55-1.59.857 0 1.552.711 1.552 1.59 0 .88-.695 1.59-1.551 1.59Zm.387-5.723.18-1.913c.13-1.391 1.256-2.439 2.62-2.439h.279v.602a.92.92 0 0 0 .912.937h2.464c.509 0 .92-.416.92-.937v-.601h.273c1.363 0 2.49 1.047 2.619 2.439l.18 1.913H10.777Zm10.831 5.723c-.856 0-1.55-.71-1.55-1.59 0-.878.694-1.59 1.55-1.59.857 0 1.551.711 1.551 1.59 0 .88-.694 1.59-1.55 1.59Z"/>
    </symbol>
    <symbol id="icon_bathroom">
      <path fill="#888B97" d="M27.04 15.955H5.96c-.83 0-1.505.676-1.505 1.506s.676 1.506 1.506 1.506h21.078c.83 0 1.506-.676 1.506-1.506s-.676-1.506-1.506-1.506Z"/>
      <path fill="#888B97" d="M27.178 17.982a.499.499 0 0 0-.62.345l-.04.138H6.483l-.04-.138a.501.501 0 1 0-.965.275l1.383 4.842a3.528 3.528 0 0 0 3.378 2.549H22.76a3.527 3.527 0 0 0 3.378-2.549l1.383-4.842a.5.5 0 0 0-.343-.62ZM10.24 23.985a1.51 1.51 0 0 1-1.448-1.092l-.651-2.282a.502.502 0 1 1 .965-.275l.65 2.282c.063.214.26.364.484.364a.502.502 0 0 1 0 1.003Z"/>
      <path fill="#888B97" d="M11.203 25.041a.504.504 0 0 0-.673.225l-1.004 2.007a.503.503 0 0 0 .899.45l1.003-2.008a.503.503 0 0 0-.225-.674ZM23.474 27.274l-1.004-2.007a.502.502 0 1 0-.898.448l1.003 2.008a.502.502 0 0 0 .899-.449ZM24.615 4c-.512 0-.994.2-1.356.562l-1.593 1.593a.502.502 0 0 0 .71.71l1.593-1.592a.908.908 0 0 1 .651-.268c.504 0 .913.41.913.913v10.54a.502.502 0 1 0 1.005-.002V5.917A1.92 1.92 0 0 0 24.615 4Z"/>
      <path fill="#888B97" d="m22.878 6.657-1.004-1.004a.497.497 0 0 0-.437-.14l-2.509.411a.503.503 0 0 0-.279.844L21.66 9.87a.5.5 0 0 0 .502.131.5.5 0 0 0 .35-.382l.502-2.51a.502.502 0 0 0-.136-.452ZM16.352 10.08a.502.502 0 0 0-.71 0l-1.003 1.004a.502.502 0 0 0 .71.71l1.003-1.004a.502.502 0 0 0 0-.71ZM18.36 12.088a.502.502 0 0 0-.71 0l-1.003 1.004a.502.502 0 0 0 .71.71l1.003-1.004a.502.502 0 0 0 0-.71ZM19.364 9.077a.502.502 0 0 0-.71 0L17.65 10.08a.502.502 0 0 0 .71.71l1.004-1.005a.502.502 0 0 0 0-.71Z"/>
    </symbol>
    <symbol id="icon_floor">
      <path fill="#888B97" d="M27.288 9h-4.356c-.669 0-1.211.537-1.211 1.2v3.114h-3.145c-.67 0-1.212.536-1.212 1.199v3.114H14.22c-.67 0-1.211.537-1.211 1.2v3.264H9.712c-.322 0-.63.126-.857.35a1.195 1.195 0 0 0-.355.85V25.8c0 .663.543 1.2 1.212 1.2h17.576c.67 0 1.212-.537 1.212-1.2V10.2c0-.663-.542-1.2-1.212-1.2Z"/>
      <path fill="#888B97" d="M21.264 5.245a.848.848 0 0 0-1.178-.015C14.743 10.305 9.66 15.262 4.744 20.055a.803.803 0 0 0-.244.575v5.558c0 .448.373.812.833.812.46 0 .833-.364.833-.812v-5.222c4.836-4.716 9.836-9.588 15.082-14.572a.798.798 0 0 0 .016-1.149Z"/>
    </symbol>
    <symbol id="icon_call">
      <path fill="#fff" d="M8.384 2.48a2.4 2.4 0 0 1 2.793 1.134l.09.18.793 1.764a2.996 2.996 0 0 1-.53 3.262l-.159.158-1.253 1.168c-.225.214-.056 1.04.761 2.454.733 1.272 1.332 1.866 1.625 1.898h.052l.063-.012 2.46-.752a1.8 1.8 0 0 1 1.877.53l.11.137 1.628 2.256a2.4 2.4 0 0 1-.15 2.997l-.146.15-.651.618a4.2 4.2 0 0 1-4.458.846c-2.322-.936-4.432-3.075-6.348-6.394-1.92-3.328-2.718-6.228-2.362-8.712a4.2 4.2 0 0 1 2.715-3.347l.231-.077.86-.259Z"/>
    </symbol>
    <symbol id="icon_play">
      <path fill="#fff" fill-opacity=".5" d="M48 24a24 24 0 1 1-48 0 24 24 0 0 1 48 0Zm-27.63-8.721A1.5 1.5 0 0 0 18 16.5v15a1.5 1.5 0 0 0 2.37 1.221l10.5-7.5a1.501 1.501 0 0 0 0-2.442l-10.5-7.5Z"/>
    </symbol>
    <symbol id="icon_star">
      <path fill="#F59E0B" d="M25.605 10.709a1.168 1.168 0 0 0-1.013-.789l-6.651-.528-2.878-6.371a1.164 1.164 0 0 0-2.126-.002L10.06 9.392l-6.651.528a1.167 1.167 0 0 0-.722 1.999L7.6 16.71l-1.738 7.527a1.167 1.167 0 0 0 1.785 1.234L14 21.236l6.352 4.235a1.168 1.168 0 0 0 1.77-1.29l-2.134-7.467 5.293-4.763c.346-.312.473-.8.324-1.242Z"/>
    </symbol>
    <symbol id="icon_watch">
      <path fill="#888B97" d="M11.99 2C6.47 2 2 6.48 2 12s4.47 10 9.99 10C17.52 22 22 17.52 22 12S17.52 2 11.99 2ZM16 16a.994.994 0 0 1-1.41 0l-3.29-3.29A1 1 0 0 1 11 12V8c0-.55.45-1 1-1s1 .45 1 1v3.59l3 3c.39.39.39 1.02 0 1.41Z"/>
    </symbol>
    <symbol id="icon_mail">
      <path fill="#3B82F6" d="M19 4H5a3 3 0 0 0-3 3v10a3 3 0 0 0 3 3h14a3 3 0 0 0 3-3V7a3 3 0 0 0-3-3Zm0 2-6.5 4.47a1 1 0 0 1-1 0L5 6h14Z"/>
    </symbol>
    <symbol id="icon_facebook">
      <path d="M12.319 26v-9.385H9v-3.378h3.319V10.35c0-2.268 1.96-4.351 6.477-4.351 1.829 0 3.181.131 3.181.131l-.107 3.155s-1.379-.01-2.884-.01c-1.629 0-1.89.562-1.89 1.493v2.467H22l-.213 3.38h-4.69V26h-4.778Z"/>
    </symbol>
    <symbol id="icon_twitter">
      <path d="M28 8.376a9.669 9.669 0 0 1-2.832.78 5.011 5.011 0 0 0 2.163-2.78c-.964.588-2.02 1-3.12 1.219a4.908 4.908 0 0 0-1.636-1.181A4.8 4.8 0 0 0 20.616 6C17.891 6 15.7 8.266 15.7 11.047c0 .39.046.781.12 1.157-4.08-.219-7.72-2.219-10.14-5.28a5.109 5.109 0 0 0-.67 2.546c0 1.752.869 3.296 2.193 4.205a4.868 4.868 0 0 1-2.224-.642v.062c0 2.452 1.69 4.485 3.943 4.952-.423.113-.858.17-1.295.172-.32 0-.623-.033-.93-.077.624 2 2.438 3.453 4.598 3.5a9.701 9.701 0 0 1-6.106 2.157c-.412 0-.793-.015-1.188-.062A13.674 13.674 0 0 0 11.554 26c9.045 0 13.994-7.686 13.994-14.358 0-.219 0-.438-.014-.657A10.748 10.748 0 0 0 28 8.375Z"/>
    </symbol>
    <symbol id="icon_instagram">
      <path d="M15.997 12.665A3.342 3.342 0 0 0 12.663 16a3.342 3.342 0 0 0 3.334 3.335A3.342 3.342 0 0 0 19.332 16a3.342 3.342 0 0 0-3.335-3.335ZM26 16c0-1.38.012-2.75-.065-4.128-.078-1.6-.443-3.022-1.614-4.193-1.173-1.173-2.591-1.536-4.192-1.613C18.747 5.988 17.378 6 16 6c-1.381 0-2.75-.013-4.128.065-1.601.077-3.022.443-4.193 1.613-1.173 1.174-1.536 2.592-1.613 4.193C5.988 13.253 6 14.622 6 16c0 1.378-.013 2.75.065 4.128.077 1.6.443 3.022 1.613 4.193 1.174 1.173 2.592 1.536 4.193 1.613 1.381.078 2.75.065 4.128.065 1.38 0 2.75.013 4.128-.065 1.6-.077 3.021-.443 4.192-1.613 1.174-1.174 1.536-2.592 1.614-4.193.08-1.379.065-2.747.065-4.128Zm-10.002 5.131A5.124 5.124 0 0 1 10.867 16a5.124 5.124 0 0 1 5.13-5.131c2.84 0 5.131 2.292 5.131 5.131a5.124 5.124 0 0 1-5.13 5.131Zm5.341-9.274a1.197 1.197 0 0 1-1.198-1.198c0-.663.535-1.198 1.198-1.198a1.197 1.197 0 0 1 .848 2.046 1.197 1.197 0 0 1-.848.35Z"/>
    </symbol>
    <symbol id="icon_text" width="859.886" height="100.532" fill="none">
      <path d="M119.021 99.886c-12.472-2.112-22.865-9.712-28.256-20.663-3.139-6.376-3.286-7.193-3.286-18.197 0-10.727.202-11.935 2.943-17.521 3.645-7.43 10.712-14.45 18.291-18.17 5.358-2.63 6.615-2.83 17.787-2.83 11.559 0 12.276.126 18.671 3.274 8.309 4.09 15.78 11.978 18.925 19.98 1.782 4.535 2.258 7.747 2.258 15.246 0 12.045-2.397 18.674-9.604 26.56-9.323 10.2-23.3 14.764-37.729 12.32zm21.07-4.421c9.112-3.215 16.425-10.059 20.747-19.415 2.167-4.692 2.567-7.006 2.596-15.045.03-8.227-.317-10.238-2.586-15-7.4-15.533-22.194-23.14-40.37-20.76-20.23 2.65-33.727 21.237-30.404 41.872 3.148 19.547 19.863 32.04 40.382 30.18 3.287-.298 7.624-1.122 9.636-1.832zM119.4 79.108c-7.436-3.377-10.94-10.269-10.227-20.119 1.607-22.218 30.274-24.315 34.793-2.544 3.385 16.307-10.453 29.073-24.566 22.663zm15.443-3.848c8.84-6.589 8.866-21.902.049-28.474-3.79-2.825-9.884-3.363-14.308-1.264-11.139 5.286-11.522 24.717-.605 30.69 4.293 2.348 11.013 1.918 14.864-.952zm61.636 24.788c-9.13-1.708-15.87-6.965-19.618-15.302-2.264-5.036-2.37-6.348-2.7-33.491l-.345-28.25h25.163v23.032c0 29.245 1.013 32.301 10.71 32.301 3.91 0 5.03-.478 7.446-3.182l2.844-3.183V23.005h25v76h-24v-5.136l-2.75 1.929c-5.235 3.672-14.824 5.546-21.75 4.25zm17.273-5.24c2.35-1.103 5.613-3.344 7.25-4.98l2.977-2.977v9.154h18v-70h-19l-.007 23.25c-.006 21.297-.17 23.496-1.94 26.182-2.682 4.07-5.697 5.491-11.727 5.532-6.294.043-10.72-3.117-12.292-8.779-.563-2.027-1.026-13.248-1.03-24.935l-.004-21.25H176.83l.324 26.25c.307 24.91.441 26.504 2.623 31.237 1.264 2.743 3.289 6.049 4.5 7.345 6.469 6.929 19.438 8.676 29.475 3.97zm327.212 5.16c-20.93-3.159-34.083-19.885-32.727-41.621.924-14.809 9.045-27.313 21.545-33.172 5.091-2.386 6.865-2.67 16.697-2.67 10.656 0 11.2.108 17.4 3.47 12.116 6.567 18.1 17.5 18.1 33.067v8.963h-24c-13.2 0-24 .396-24 .881 0 2.229 6.578 7.058 11.087 8.14 6.548 1.57 11.968.48 18.093-3.642 2.805-1.888 5.167-3.308 5.25-3.156.173.319 3.546 5.041 8.84 12.377l3.68 5.1-5.598 4.148c-8.963 6.64-22.677 9.878-34.367 8.115zm21.949-5.044c6.05-2.113 13.066-6.395 13.066-7.976 0-.991-7.708-11.943-8.406-11.943-.188 0-2.534 1.225-5.213 2.722-6.734 3.764-16.793 3.87-23.343.246-4.669-2.583-9.038-7.957-9.038-11.116 0-1.753 1.318-1.852 24.5-1.852h24.5l-.001-7.75c-.001-10.098-3.393-17.721-10.88-24.452-6.165-5.544-12.59-7.923-21.393-7.923-7.73 0-10.853.699-16.726 3.744-12.994 6.735-19.82 19.722-18.79 35.753 1.592 24.812 26.321 39.416 51.724 30.547zm-32.934-42.276c0-2.547 4.538-8.147 8.02-9.896 4.253-2.138 12.075-2.27 15.94-.272 3.768 1.948 7.04 6.204 7.04 9.155V54h-15.5c-12.358 0-15.5-.274-15.5-1.352zm27-3.163c0-.833-1.463-2.406-3.25-3.496-4.514-2.752-11.499-2.637-15.775.261-6.135 4.157-5.206 4.75 7.441 4.75 9.68 0 11.584-.249 11.584-1.515zM613.2 99.938c-2.353-.464-6.564-2.088-9.359-3.609-21.1-11.483-25.106-46.929-7.315-64.72 7.13-7.13 12.225-9.109 23.452-9.109 7.916 0 10.213.375 13.78 2.25 5.206 2.736 5.22 2.737 5.22.25 0-1.893.666-2 12.5-2h12.5v76h-13c-12.21 0-13-.118-13-1.945 0-1.876-.185-1.862-5.25.394-6.142 2.734-13.512 3.674-19.528 2.489zm17.778-5.074c2.475-1.084 5.737-3.156 7.25-4.605l2.75-2.633V96h20V26h-19v8.802l-3.25-3.051c-5.21-4.893-10.273-6.704-18.804-6.729-9.446-.028-15.87 2.874-22.37 10.105-6.537 7.27-8.91 14.177-8.888 25.873.02 10.78 1.449 15.713 6.807 23.5 8.3 12.06 22.3 16.147 35.505 10.364zM617.2 79.339c-7.778-3.834-11.59-13.652-9.29-23.931 2.916-13.026 16.562-18.607 26.662-10.904 4.348 3.317 6.437 7.395 7.1 13.859 1.644 16.057-11.534 27.353-24.472 20.976zm14.479-3.298c9.4-5.732 9.472-24.306.117-30.01-6.403-3.904-14.974-1.733-19.053 4.826-3.265 5.25-3.2 15.14.135 20.505 3.994 6.424 12.476 8.535 18.801 4.679zm188.635 23.891c-3.39-.435-8.74-2.01-11.888-3.5-5.374-2.542-13.448-9.342-13.448-11.326 0-.492 3.46-3.829 7.689-7.416l7.689-6.522 3.995 3.42c4.282 3.665 9.008 5.407 14.627 5.391 4.361-.012 6.3-1.182 5.847-3.531-.256-1.33-3.008-2.648-10.348-4.956-11.785-3.705-17.011-6.268-20.696-10.15-8.9-9.377-7.238-25.668 3.404-33.378 6.138-4.445 13.366-6.221 23.63-5.805 7.284.295 9.776.876 15.663 3.653 3.85 1.817 8.441 4.695 10.203 6.397l3.204 3.094-2.04 2.593c-1.122 1.427-4.29 4.972-7.038 7.878l-4.998 5.285-3.593-3.155c-1.976-1.735-5.074-3.773-6.884-4.53-6.917-2.89-15.58-.76-12.415 3.053.65.784 6.244 3.02 12.428 4.968 18.091 5.697 23.642 11.293 23.623 23.815-.026 17.18-16.309 27.593-38.654 24.722zm21.664-5.081c5.461-2.37 10.754-7.223 12.619-11.569 1.883-4.388 1.737-12.729-.297-17.016-2.285-4.814-8.796-8.71-20.7-12.382-11.015-3.4-15.194-6.411-14.084-10.15 1.01-3.399 3.386-4.735 8.403-4.724 4.22.01 11.324 2.705 16.391 6.219 1.622 1.125 2.391.642 6.7-4.206 4.556-5.129 4.763-5.592 3.24-7.275-3.002-3.316-13.638-7.799-20.322-8.564-18.139-2.076-31.625 5.847-32.735 19.23-.978 11.793 5.337 18.531 22.193 23.681 12.567 3.84 14.592 5.07 14.592 8.871 0 4-3.202 6.036-9.473 6.024-5.301-.01-13.917-3.33-16.385-6.313-1.565-1.891-2.24-1.545-9.106 4.666l-4.248 3.843 3.237 3.34c8.281 8.544 27.76 11.626 39.975 6.325zm-803-17.153V56.395L19.5 28.948C8.787 13.85.012 1.163 0 .75-.012.338 6.666 0 14.839 0h14.86l10.828 15.5C46.482 24.025 51.635 31 51.977 31c.343 0 5.018-6.975 10.39-15.5L72.133 0h14.423c7.932 0 14.423.305 14.423.677 0 .373-8.1 12.93-18 27.905l-18 27.228V99h-26zm23-2.127V55.14l16.985-25.82L95.95 3.5l-10.591-.285c-5.844-.157-11.104.15-11.736.685-.63.533-5.644 8.181-11.144 16.996s-10.225 16.024-10.5 16.022c-.275 0-5.679-7.523-12.007-16.712L28.465 3.5l-11.363-.284c-9.35-.233-11.27-.039-10.832 1.1.292.763 8.446 12.559 18.12 26.215l17.589 24.83V96h20zm196-14.571V23h24v2.583c0 1.421.337 2.412.75 2.202 11.043-5.614 12.39-5.996 19.788-5.623 4.068.206 7.857.834 8.42 1.396.695.696.026 5.155-2.099 13.982-1.716 7.128-3.217 13.078-3.336 13.223-.12.145-1.846-.418-3.838-1.25-4.642-1.94-8.995-1.921-12.814.053-5.192 2.685-5.871 6.032-5.871 28.902V99h-25zm22 15.234c0-22.16.59-24.58 7.101-29.085 2.982-2.064 4.204-2.287 9.97-1.824l6.57.529 2.263-9.387c1.245-5.163 1.974-9.855 1.62-10.427-.353-.572-3.399-1.04-6.768-1.04-7.337 0-13.275 2.549-17.713 7.603l-3.043 3.467-.014-2.785C279.93 26.23 279.609 26 269.862 26h-8.884v70h19zm79-26.734V0l21.25.02c11.687.011 24.296.46 28.018.999 9.533 1.378 18.645 5.803 25.59 12.427 10.166 9.697 14.15 19.994 14.13 36.514-.007 5.247-.614 11.79-1.35 14.54-4.33 16.185-16.092 28.399-31.45 32.657C409.536 98.72 404.748 99 383.75 99H358.98zm54.54 44.948C433.071 89.356 444.92 73.12 445.223 51c.308-22.462-10.014-38.342-29.328-45.117-5.79-2.031-8.741-2.293-30.167-2.671l-23.75-.42V96h22.79c17.37 0 24.207-.37 28.75-1.552zM381.978 50V22l12.25.022c14.271.026 18.082 1.26 23.943 7.762 6.45 7.153 8.566 19.87 5.209 31.285-1.96 6.664-8.833 13.845-15.025 15.7-2.26.677-9.12 1.231-15.243 1.231h-11.134zm30.17 21.451c2.381-1.672 5.455-5.045 6.83-7.495 2.178-3.883 2.5-5.678 2.5-13.956 0-7.358-.421-10.29-1.867-13-5.007-9.386-10.351-12.132-24.027-12.343l-10.106-.157-.268 25.358-.267 25.359 11.438-.363c10.847-.344 11.661-.52 15.767-3.403zM457.979 61V23h24v2.5c0 3.075.063 3.076 4.556.026 2.004-1.36 5.19-2.763 7.078-3.118 4.786-.898 15.154-.02 16.578 1.404 1.107 1.107-.445 9.542-4.394 23.874l-.877 3.187-3.439-1.437c-1.891-.79-5.298-1.436-7.57-1.436-3.366 0-4.763.63-7.532 3.4l-3.4 3.4V99h-25zm22.194 13.515.306-21.486 3.625-3.623c4.05-4.048 10.321-5.492 15.703-3.616l2.967 1.035 2.537-10.115c1.395-5.563 2.314-10.473 2.043-10.912-.272-.439-3.414-.798-6.984-.798-7.589 0-11.117 1.506-17.141 7.317l-4.25 4.1V25.924l-9.25.287-9.25.288-.263 34.75-.263 34.75h19.915zM675.98 61V23h12c11.333 0 12 .111 12 2 0 1.1.112 1.998.25 1.995.137 0 2.95-1.117 6.25-2.476 8.436-3.475 17.258-3.44 24.356.097 2.887 1.439 5.934 3.66 6.77 4.937l1.521 2.322 4.376-3.34c12.618-9.632 32.769-8.36 40.545 2.56 5.097 7.16 5.932 12.994 5.932 41.494V99h-25V74.95c0-27.362-.427-29.376-6.46-30.508-5.078-.953-10.7 2.061-12.234 6.558-.776 2.277-1.213 11.278-1.25 25.75L744.979 99h-25V74.223c0-27.56-.227-28.612-6.408-29.771a9.875 9.875 0 0 0-6.41.954c-6.065 3.136-6.182 3.703-6.182 29.817V99h-25zm22.198 11.564.302-23.437 2.914-3.04c5.567-5.806 13.988-6.48 18.676-1.493 2.392 2.544 2.412 2.746 2.71 26.985L723.077 96h19.9V48.8l3.31-3.31c4.23-4.23 10.83-5.504 15.638-3.017 5.479 2.833 6.053 5.77 6.053 30.995V96h19V71.159c0-26.579-.606-30.997-5.177-37.757-7.525-11.13-27.96-11.2-39.025-.134l-3.497 3.498-4.042-4.692c-4.573-5.309-8.928-7.08-17.375-7.064-6.025.01-14.087 3.24-17.384 6.965l-2 2.258-.5-3.866-.5-3.867-9.25-.287-9.25-.288V96h18.897z" style="fill:#1B1C57"/>
    </symbol>
    <symbol id="icon_close" viewBox="0 0 11 11">
      <path d="M11 1.108 9.892 0 5.5 4.392 1.108 0 0 1.108 4.392 5.5 0 9.892 1.108 11 5.5 6.608 9.892 11 11 9.892 6.608 5.5 11 1.108Z"/>
    </symbol>
  </defs>
</svg>